<svg width="474" height="466" viewBox="0 0 474 466" fill="none" xmlns="http://www.w3.org/2000/svg">
<mask id="path-1-inside-1" fill="white">
<path d="M107.401 78.6581C107.917 87.4163 101.236 94.9347 92.4776 95.4506C83.7208 95.9677 76.2011 89.2869 75.6852 80.5287C75.1679 71.7706 81.8502 64.252 90.6071 63.7362C99.3652 63.219 106.884 69.9 107.401 78.6581Z"/>
</mask>
<path d="M107.401 78.6581C107.917 87.4163 101.236 94.9347 92.4776 95.4506C83.7208 95.9677 76.2011 89.2869 75.6852 80.5287C75.1679 71.7706 81.8502 64.252 90.6071 63.7362C99.3652 63.219 106.884 69.9 107.401 78.6581Z" fill="black" stroke="white" stroke-width="16" mask="url(#path-1-inside-1)"/>
<mask id="path-2-inside-2" fill="white">
<path d="M87.2298 77.9499C9.64818 130.791 -13.044 232.648 36.5454 305.455L317.493 114.099C285.545 67.1952 231.389 43.7912 176.159 47.2032C145.658 49.0882 114.832 59.1501 87.2298 77.9499Z"/>
</mask>
<path d="M87.2298 77.9499C9.64818 130.791 -13.044 232.648 36.5454 305.455L317.493 114.099C285.545 67.1952 231.389 43.7912 176.159 47.2032C145.658 49.0882 114.832 59.1501 87.2298 77.9499Z" fill="url(#paint0_linear)"/>
<path d="M36.5454 305.455L41.0489 312.067L34.4369 316.57L29.9334 309.958L36.5454 305.455ZM317.493 114.099L324.105 109.596L328.608 116.208L321.996 120.711L317.493 114.099ZM176.159 47.2032L175.665 39.2184L175.665 39.2184L176.159 47.2032ZM91.7333 84.5619C17.4015 135.189 -3.6796 232.186 43.1574 300.951L29.9334 309.958C-22.4084 233.111 1.89491 126.392 82.7264 71.3379L91.7333 84.5619ZM32.0419 298.843L312.989 107.487L321.996 120.711L41.0489 312.067L32.0419 298.843ZM310.881 118.603C280.677 74.2583 229.352 51.9323 176.652 55.188L175.665 39.2184C233.427 35.65 290.414 60.1321 324.105 109.596L310.881 118.603ZM176.652 55.1879C147.572 56.9852 118.134 66.5806 91.7332 84.5619L82.7264 71.3378C111.53 51.7197 143.744 41.1912 175.665 39.2184L176.652 55.1879Z" fill="white" mask="url(#path-2-inside-2)"/>
<g opacity="0.990005">
<mask id="path-4-inside-3" fill="white">
<path d="M34.8985 303.474C22.1151 284.706 74.645 226.655 152.227 173.814C229.808 120.973 303.063 93.3515 315.847 112.119C328.629 130.887 276.099 188.938 198.518 241.779C120.936 294.621 47.6819 322.243 34.8985 303.474Z"/>
</mask>
<path d="M34.8985 303.474C22.1151 284.706 74.645 226.655 152.227 173.814C229.808 120.973 303.063 93.3515 315.847 112.119C328.629 130.887 276.099 188.938 198.518 241.779C120.936 294.621 47.6819 322.243 34.8985 303.474Z" fill="black" stroke="white" stroke-width="16" mask="url(#path-4-inside-3)"/>
</g>
<mask id="path-5-outside-4" maskUnits="userSpaceOnUse" x="87.0695" y="176.546" width="387" height="290" fill="black">
<rect fill="white" x="87.0695" y="176.546" width="387" height="290"/>
<path d="M103.582 275C80.0456 333.712 112.168 395.955 117.952 407.123C132.356 435.06 146.399 442.445 152.255 445.028C174.519 454.813 205.439 450.521 222.391 432.732C225.375 429.641 227.411 426.659 228.648 424.583C234.578 424.947 239.199 424.001 241.344 423.528C247.672 422.147 252.076 419.819 256.732 417.383C267.318 411.779 266.771 409.196 274.12 406.104C277.03 404.903 288.526 400.065 298.711 405.084C303.623 407.485 306.314 411.269 309.988 416.363C312.704 420.128 312.827 421.999 318.172 432.732C320.67 437.745 321.919 440.252 322.648 441.427C328.542 450.923 344.572 461.873 356.623 455.795C365.138 451.503 369.464 441.863 368.52 431.604C376.122 443.172 389.802 448.193 400.567 442.736C409.154 438.407 413.482 428.621 412.464 418.217C420.103 429.531 433.599 434.368 444.222 428.987C455.971 423.056 459.791 406.977 452.806 393.117C452.238 391.989 451.382 390.608 450.738 389.571C445.572 381.224 441.218 377.724 438.51 374.347C431.714 365.867 429.587 351.039 434.946 345.681C438.655 341.971 442.803 345.827 452.332 341.571C454.771 340.516 462.191 337.204 464.63 330.329C466.302 325.637 465.028 321.125 464.119 318.543C440.547 249.099 403.698 221.233 403.698 221.233C395.62 215.123 373.176 199.333 337.636 191.003C320.619 187.024 300.898 184.828 280.184 184.828C210.567 184.831 129.824 209.648 103.582 275Z"/>
</mask>
<path d="M103.582 275C80.0456 333.712 112.168 395.955 117.952 407.123C132.356 435.06 146.399 442.445 152.255 445.028C174.519 454.813 205.439 450.521 222.391 432.732C225.375 429.641 227.411 426.659 228.648 424.583C234.578 424.947 239.199 424.001 241.344 423.528C247.672 422.147 252.076 419.819 256.732 417.383C267.318 411.779 266.771 409.196 274.12 406.104C277.03 404.903 288.526 400.065 298.711 405.084C303.623 407.485 306.314 411.269 309.988 416.363C312.704 420.128 312.827 421.999 318.172 432.732C320.67 437.745 321.919 440.252 322.648 441.427C328.542 450.923 344.572 461.873 356.623 455.795C365.138 451.503 369.464 441.863 368.52 431.604C376.122 443.172 389.802 448.193 400.567 442.736C409.154 438.407 413.482 428.621 412.464 418.217C420.103 429.531 433.599 434.368 444.222 428.987C455.971 423.056 459.791 406.977 452.806 393.117C452.238 391.989 451.382 390.608 450.738 389.571C445.572 381.224 441.218 377.724 438.51 374.347C431.714 365.867 429.587 351.039 434.946 345.681C438.655 341.971 442.803 345.827 452.332 341.571C454.771 340.516 462.191 337.204 464.63 330.329C466.302 325.637 465.028 321.125 464.119 318.543C440.547 249.099 403.698 221.233 403.698 221.233C395.62 215.123 373.176 199.333 337.636 191.003C320.619 187.024 300.898 184.828 280.184 184.828C210.567 184.831 129.824 209.648 103.582 275Z" fill="url(#paint1_linear)"/>
<path d="M103.582 275C80.0456 333.712 112.168 395.955 117.952 407.123C132.356 435.06 146.399 442.445 152.255 445.028C174.519 454.813 205.439 450.521 222.391 432.732C225.375 429.641 227.411 426.659 228.648 424.583C234.578 424.947 239.199 424.001 241.344 423.528C247.672 422.147 252.076 419.819 256.732 417.383C267.318 411.779 266.771 409.196 274.12 406.104C277.03 404.903 288.526 400.065 298.711 405.084C303.623 407.485 306.314 411.269 309.988 416.363C312.704 420.128 312.827 421.999 318.172 432.732C320.67 437.745 321.919 440.252 322.648 441.427C328.542 450.923 344.572 461.873 356.623 455.795C365.138 451.503 369.464 441.863 368.52 431.604C376.122 443.172 389.802 448.193 400.567 442.736C409.154 438.407 413.482 428.621 412.464 418.217C420.103 429.531 433.599 434.368 444.222 428.987C455.971 423.056 459.791 406.977 452.806 393.117C452.238 391.989 451.382 390.608 450.738 389.571C445.572 381.224 441.218 377.724 438.51 374.347C431.714 365.867 429.587 351.039 434.946 345.681C438.655 341.971 442.803 345.827 452.332 341.571C454.771 340.516 462.191 337.204 464.63 330.329C466.302 325.637 465.028 321.125 464.119 318.543C440.547 249.099 403.698 221.233 403.698 221.233C395.62 215.123 373.176 199.333 337.636 191.003C320.619 187.024 300.898 184.828 280.184 184.828C210.567 184.831 129.824 209.648 103.582 275Z" stroke="white" stroke-width="16" stroke-linejoin="round" mask="url(#path-5-outside-4)"/>
<mask id="path-6-inside-5" fill="white">
<path d="M172.784 369.379C158.705 371.699 149.962 380.067 147.06 383.112C142.291 392.444 136.955 405.261 141.722 410.239C144.755 413.405 150.024 411.465 157.681 409.382C162.663 408.027 168.656 406.611 175.7 406.5C204.649 406.046 227.637 428 229.051 425.821C229.989 424.375 217.422 418.49 215.288 406.457C213.794 398.033 219.008 395.151 216.866 387.891C213.964 378.064 201.546 373.65 195.748 371.59C188.103 368.872 181.238 368.662 176.932 368.921C174.948 369.041 173.508 369.26 172.784 369.379"/>
</mask>
<path d="M172.784 369.379C158.705 371.699 149.962 380.067 147.06 383.112C142.291 392.444 136.955 405.261 141.722 410.239C144.755 413.405 150.024 411.465 157.681 409.382C162.663 408.027 168.656 406.611 175.7 406.5C204.649 406.046 227.637 428 229.051 425.821C229.989 424.375 217.422 418.49 215.288 406.457C213.794 398.033 219.008 395.151 216.866 387.891C213.964 378.064 201.546 373.65 195.748 371.59C188.103 368.872 181.238 368.662 176.932 368.921C174.948 369.041 173.508 369.26 172.784 369.379" fill="url(#paint2_linear)"/>
<path d="M147.06 383.112L139.936 379.472L140.465 378.435L141.269 377.592L147.06 383.112ZM141.722 410.239L135.945 415.772L135.945 415.772L141.722 410.239ZM157.681 409.382L155.581 401.663L155.582 401.662L157.681 409.382ZM175.7 406.5L175.574 398.501L175.575 398.501L175.7 406.5ZM229.051 425.821L235.763 430.174L235.762 430.176L229.051 425.821ZM215.288 406.457L207.411 407.855L207.411 407.854L215.288 406.457ZM216.866 387.891L224.538 385.625L224.539 385.627L216.866 387.891ZM195.748 371.59L193.07 379.129L193.068 379.128L195.748 371.59ZM174.085 377.273C162.533 379.176 155.285 386.078 152.85 388.632L141.269 377.592C144.639 374.057 154.876 364.222 171.484 361.486L174.085 377.273ZM154.184 386.752C151.867 391.286 149.654 396.217 148.544 400.374C147.987 402.459 147.823 403.933 147.866 404.839C147.907 405.733 148.1 405.332 147.5 404.705L135.945 415.772C132.961 412.657 132.033 408.787 131.883 405.586C131.734 402.397 132.309 399.151 133.086 396.243C134.644 390.414 137.484 384.271 139.936 379.472L154.184 386.752ZM147.5 404.705C146.384 403.54 145.214 404.073 146.923 403.847C147.74 403.74 148.821 403.505 150.35 403.103C151.972 402.676 153.443 402.244 155.581 401.663L159.781 417.101C156.476 418.001 152.373 419.268 149.013 419.71C145.414 420.184 140.094 420.104 135.945 415.772L147.5 404.705ZM155.582 401.662C160.775 400.25 167.528 398.628 175.574 398.501L175.827 414.499C169.783 414.595 164.552 415.804 159.78 417.102L155.582 401.662ZM175.575 398.501C192.039 398.243 206.454 404.335 216.506 409.77C221.548 412.496 225.726 415.193 228.413 416.864C229.889 417.781 230.634 418.21 230.98 418.375C231.231 418.495 230.725 418.208 229.815 418.061C229.222 417.965 224.958 417.433 222.34 421.466L235.762 430.176C232.968 434.482 228.358 434.033 227.259 433.855C225.843 433.626 224.669 433.092 224.099 432.82C222.805 432.204 221.296 431.279 219.965 430.452C217.04 428.633 213.397 426.278 208.896 423.845C199.864 418.961 188.311 414.303 175.826 414.499L175.575 398.501ZM222.339 421.468C220.71 423.979 221.002 426.553 221.471 427.986C221.868 429.197 222.464 429.933 222.568 430.063C222.813 430.369 222.903 430.401 222.333 429.903C221.562 429.229 219.6 427.625 217.784 425.883C214.02 422.274 208.915 416.336 207.411 407.855L223.165 405.06C223.795 408.611 226.04 411.633 228.858 414.335C230.333 415.75 231.471 416.64 232.859 417.853C233.369 418.298 234.304 419.12 235.065 420.072C235.427 420.524 236.199 421.547 236.678 423.009C237.229 424.693 237.509 427.482 235.763 430.174L222.339 421.468ZM207.411 407.854C206.298 401.579 207.805 397.128 208.693 394.323C209.474 391.855 209.539 391.327 209.193 390.155L224.539 385.627C226.335 391.715 224.863 396.258 223.947 399.153C223.137 401.709 222.784 402.912 223.165 405.061L207.411 407.854ZM209.193 390.156C208.546 387.966 206.632 385.761 203.189 383.634C199.812 381.548 196.015 380.175 193.07 379.129L198.426 364.052C201.279 365.065 206.59 366.929 211.597 370.022C216.538 373.074 222.283 377.989 224.538 385.625L209.193 390.156ZM193.068 379.128C186.713 376.869 180.985 376.692 177.413 376.907L176.452 360.936C181.491 360.633 189.493 360.876 198.428 364.052L193.068 379.128ZM177.413 376.907C175.788 377.005 174.637 377.181 174.09 377.272L171.479 361.486C172.379 361.338 174.108 361.077 176.452 360.936L177.413 376.907Z" fill="white" mask="url(#path-6-inside-5)"/>
<mask id="path-8-inside-6" fill="white">
<path d="M368.77 352.576C366.242 354.143 365.72 359.197 367.114 365.115C364.067 360.676 359.032 358.332 356.644 359.5C353.798 360.893 353.008 367.863 356.644 375.039C357.62 376.687 358.918 379.224 359.774 382.531C361.472 389.101 359.591 391.605 360.934 395.933C362.982 402.537 371.055 408.631 376.58 406.133C380.008 404.583 381.394 400.213 381.894 398.167C383.378 398.647 388.408 400.065 392.334 397.457C398.002 393.695 398.171 383.667 394.446 378.405C391.646 374.452 387.956 375.037 384.163 370.032C381.839 366.968 380.92 363.709 380.508 361.415C377.444 355.733 373.507 352.093 370.502 352.093C369.879 352.093 369.296 352.249 368.77 352.576Z"/>
</mask>
<path d="M368.77 352.576C366.242 354.143 365.72 359.197 367.114 365.115C364.067 360.676 359.032 358.332 356.644 359.5C353.798 360.893 353.008 367.863 356.644 375.039C357.62 376.687 358.918 379.224 359.774 382.531C361.472 389.101 359.591 391.605 360.934 395.933C362.982 402.537 371.055 408.631 376.58 406.133C380.008 404.583 381.394 400.213 381.894 398.167C383.378 398.647 388.408 400.065 392.334 397.457C398.002 393.695 398.171 383.667 394.446 378.405C391.646 374.452 387.956 375.037 384.163 370.032C381.839 366.968 380.92 363.709 380.508 361.415C377.444 355.733 373.507 352.093 370.502 352.093C369.879 352.093 369.296 352.249 368.77 352.576Z" fill="url(#paint3_linear)" stroke="white" stroke-width="16" stroke-linejoin="round" mask="url(#path-8-inside-6)"/>
<mask id="path-9-inside-7" fill="white">
<path d="M371.7 277.42C357.195 285.132 353.408 306.385 363.247 324.891C373.084 343.396 392.82 352.147 407.327 344.435C421.834 336.721 425.619 315.468 415.78 296.963C408.368 283.021 395.34 274.616 383.16 274.617C379.175 274.617 375.278 275.519 371.7 277.42Z"/>
</mask>
<path d="M371.7 277.42C357.195 285.132 353.408 306.385 363.247 324.891C373.084 343.396 392.82 352.147 407.327 344.435C421.834 336.721 425.619 315.468 415.78 296.963C408.368 283.021 395.34 274.616 383.16 274.617C379.175 274.617 375.278 275.519 371.7 277.42Z" fill="url(#paint4_linear)" stroke="white" stroke-width="16" mask="url(#path-9-inside-7)"/>
<mask id="path-10-inside-8" fill="white">
<path d="M286.17 305.287C271.663 312.999 267.879 334.253 277.718 352.759C287.555 371.264 307.29 380.012 321.796 372.3C336.304 364.589 340.088 343.335 330.25 324.829C322.839 310.888 309.811 302.483 297.631 302.484C293.644 302.484 289.747 303.384 286.17 305.287"/>
</mask>
<path d="M286.17 305.287C271.663 312.999 267.879 334.253 277.718 352.759C287.555 371.264 307.29 380.012 321.796 372.3C336.304 364.589 340.088 343.335 330.25 324.829C322.839 310.888 309.811 302.483 297.631 302.484C293.644 302.484 289.747 303.384 286.17 305.287" fill="url(#paint5_linear)"/>
<path d="M277.718 352.759L284.781 349.003L284.782 349.003L277.718 352.759ZM321.796 372.3L318.041 365.236L318.042 365.236L321.796 372.3ZM330.25 324.829L323.186 328.585L323.186 328.584L330.25 324.829ZM297.631 302.484L297.632 310.484H297.631V302.484ZM289.925 312.35C280.825 317.188 276.114 332.7 284.781 349.003L270.654 356.514C259.644 335.806 262.501 308.809 282.414 298.223L289.925 312.35ZM284.782 349.003C293.447 365.305 308.94 370.074 318.041 365.236L325.552 379.364C305.639 389.95 281.663 377.223 270.654 356.514L284.782 349.003ZM318.042 365.236C327.142 360.399 331.854 344.888 323.186 328.585L337.313 321.074C348.323 341.781 345.467 368.779 325.551 379.364L318.042 365.236ZM323.186 328.584C316.848 316.662 306.237 310.483 297.632 310.484L297.63 294.484C313.385 294.482 328.83 305.114 337.314 321.074L323.186 328.584ZM297.631 310.484C294.867 310.484 292.272 311.102 289.926 312.35L282.413 298.223C287.222 295.666 292.422 294.484 297.631 294.484V310.484Z" fill="white" mask="url(#path-10-inside-8)"/>
<mask id="path-12-inside-9" fill="white">
<path d="M366.278 30.6348C360.352 15.1442 343.129 2.42105 326.91 2.46957C302.974 2.54083 286.388 30.4184 271.852 51.8973C250.576 83.3389 216.831 125.986 162.698 172.806C162.705 172.8 162.713 172.796 162.721 172.792C172.789 166.69 182.64 161.095 192.152 156.044C192.346 155.941 192.54 155.837 192.734 155.735C194.458 154.822 196.17 153.929 197.87 153.052C198.14 152.914 198.408 152.777 198.674 152.639C200.359 151.775 202.034 150.927 203.694 150.099C203.905 149.993 204.115 149.89 204.328 149.785C213.19 145.383 221.675 141.516 229.667 138.225C230.06 138.063 230.456 137.897 230.847 137.738C232.115 137.222 233.366 136.726 234.607 136.239C235.116 136.04 235.624 135.84 236.131 135.645C237.304 135.194 238.466 134.754 239.615 134.329C240.16 134.129 240.698 133.934 241.238 133.739C242.35 133.336 243.455 132.939 244.542 132.563C245.074 132.38 245.594 132.209 246.12 132.03C247.204 131.664 248.29 131.298 249.347 130.96C249.718 130.841 250.075 130.737 250.442 130.623C252.572 129.954 254.644 129.348 256.658 128.796C257.131 128.666 257.616 128.525 258.082 128.402C258.901 128.187 259.691 127.999 260.488 127.803C261.137 127.644 261.789 127.482 262.422 127.336C263.162 127.167 263.879 127.017 264.598 126.867C265.259 126.728 265.917 126.592 266.561 126.468C267.237 126.341 267.899 126.223 268.555 126.111C269.216 126 269.866 125.898 270.506 125.804C271.117 125.714 271.726 125.625 272.318 125.553C272.983 125.47 273.627 125.406 274.268 125.344C274.803 125.292 275.343 125.235 275.859 125.198C276.591 125.146 277.289 125.12 277.986 125.096C278.38 125.083 278.791 125.054 279.173 125.05C280.215 125.039 281.22 125.061 282.184 125.119C282.482 125.137 282.755 125.178 283.045 125.201C283.717 125.258 284.38 125.32 285.01 125.414C285.357 125.466 285.679 125.537 286.011 125.599C286.548 125.698 287.075 125.804 287.575 125.932C287.903 126.018 288.217 126.114 288.531 126.211C288.997 126.355 289.446 126.511 289.878 126.682C290.167 126.798 290.452 126.918 290.726 127.047C291.142 127.241 291.535 127.456 291.916 127.68C292.155 127.82 292.397 127.956 292.621 128.109C293.01 128.372 293.363 128.666 293.706 128.965C293.874 129.113 294.058 129.247 294.216 129.401C294.693 129.873 295.13 130.375 295.506 130.926C295.629 131.107 295.773 131.39 295.773 131.39C295.773 131.39 295.77 131.415 295.772 131.419C298.463 135.88 299.457 144.463 295.773 152.496C295.773 152.509 290.726 160.996 290.726 160.996C291.797 161.838 384.536 78.3622 366.278 30.6348Z"/>
</mask>
<path d="M366.278 30.6348C360.352 15.1442 343.129 2.42105 326.91 2.46957C302.974 2.54083 286.388 30.4184 271.852 51.8973C250.576 83.3389 216.831 125.986 162.698 172.806C162.705 172.8 162.713 172.796 162.721 172.792C172.789 166.69 182.64 161.095 192.152 156.044C192.346 155.941 192.54 155.837 192.734 155.735C194.458 154.822 196.17 153.929 197.87 153.052C198.14 152.914 198.408 152.777 198.674 152.639C200.359 151.775 202.034 150.927 203.694 150.099C203.905 149.993 204.115 149.89 204.328 149.785C213.19 145.383 221.675 141.516 229.667 138.225C230.06 138.063 230.456 137.897 230.847 137.738C232.115 137.222 233.366 136.726 234.607 136.239C235.116 136.04 235.624 135.84 236.131 135.645C237.304 135.194 238.466 134.754 239.615 134.329C240.16 134.129 240.698 133.934 241.238 133.739C242.35 133.336 243.455 132.939 244.542 132.563C245.074 132.38 245.594 132.209 246.12 132.03C247.204 131.664 248.29 131.298 249.347 130.96C249.718 130.841 250.075 130.737 250.442 130.623C252.572 129.954 254.644 129.348 256.658 128.796C257.131 128.666 257.616 128.525 258.082 128.402C258.901 128.187 259.691 127.999 260.488 127.803C261.137 127.644 261.789 127.482 262.422 127.336C263.162 127.167 263.879 127.017 264.598 126.867C265.259 126.728 265.917 126.592 266.561 126.468C267.237 126.341 267.899 126.223 268.555 126.111C269.216 126 269.866 125.898 270.506 125.804C271.117 125.714 271.726 125.625 272.318 125.553C272.983 125.47 273.627 125.406 274.268 125.344C274.803 125.292 275.343 125.235 275.859 125.198C276.591 125.146 277.289 125.12 277.986 125.096C278.38 125.083 278.791 125.054 279.173 125.05C280.215 125.039 281.22 125.061 282.184 125.119C282.482 125.137 282.755 125.178 283.045 125.201C283.717 125.258 284.38 125.32 285.01 125.414C285.357 125.466 285.679 125.537 286.011 125.599C286.548 125.698 287.075 125.804 287.575 125.932C287.903 126.018 288.217 126.114 288.531 126.211C288.997 126.355 289.446 126.511 289.878 126.682C290.167 126.798 290.452 126.918 290.726 127.047C291.142 127.241 291.535 127.456 291.916 127.68C292.155 127.82 292.397 127.956 292.621 128.109C293.01 128.372 293.363 128.666 293.706 128.965C293.874 129.113 294.058 129.247 294.216 129.401C294.693 129.873 295.13 130.375 295.506 130.926C295.629 131.107 295.773 131.39 295.773 131.39C295.773 131.39 295.77 131.415 295.772 131.419C298.463 135.88 299.457 144.463 295.773 152.496C295.773 152.509 290.726 160.996 290.726 160.996C291.797 161.838 384.536 78.3622 366.278 30.6348Z" fill="black" stroke="white" stroke-width="16" mask="url(#path-12-inside-9)"/>
<defs>
<linearGradient id="paint0_linear" x1="307.142" y1="91.1452" x2="18.2626" y2="206.878" gradientUnits="userSpaceOnUse">
<stop offset="1"/>
</linearGradient>
<linearGradient id="paint1_linear" x1="483.562" y1="259.36" x2="131.91" y2="375.63" gradientUnits="userSpaceOnUse">
<stop/>
</linearGradient>
<linearGradient id="paint2_linear" x1="225.417" y1="387.306" x2="150.189" y2="417.299" gradientUnits="userSpaceOnUse">
<stop offset="1"/>
</linearGradient>
<linearGradient id="paint3_linear" x1="356.453" y1="381.594" x2="395.61" y2="376.167" gradientUnits="userSpaceOnUse">
<stop offset="1"/>
</linearGradient>
<linearGradient id="paint4_linear" x1="357.774" y1="310.927" x2="421.254" y2="310.927" gradientUnits="userSpaceOnUse">
<stop offset="1"/>
</linearGradient>
<linearGradient id="paint5_linear" x1="272.243" y1="338.793" x2="335.724" y2="338.793" gradientUnits="userSpaceOnUse">
<stop offset="1"/>
</linearGradient>
</defs>
</svg>
